<svg width="50" height="50" viewBox="0 0 50 50" fill="none" xmlns="http://www.w3.org/2000/svg">
<g clip-path="url(#clip0_6363_23)">
<path d="M34.1797 23.6328C26.9104 23.6328 20.9961 29.5471 20.9961 36.8164C20.9961 44.0857 26.9104 50 34.1797 50C41.449 50 47.3633 44.0857 47.3633 36.8164C47.3633 29.5471 41.449 23.6328 34.1797 23.6328ZM34.1797 46.0938C29.0642 46.0938 24.9023 41.9319 24.9023 36.8164C24.9023 31.7009 29.0642 27.5391 34.1797 27.5391C39.2952 27.5391 43.457 31.7009 43.457 36.8164C43.457 41.9319 39.2952 46.0938 34.1797 46.0938ZM40.0391 36.8164C40.0391 37.8952 39.1647 38.7695 38.0859 38.7695H36.1328V40.7227C36.1328 41.8015 35.2585 42.6758 34.1797 42.6758C33.1009 42.6758 32.2266 41.8015 32.2266 40.7227V38.7695H30.2734C29.1946 38.7695 28.3203 37.8952 28.3203 36.8164C28.3203 35.7376 29.1946 34.8633 30.2734 34.8633H32.2266V32.9102C32.2266 31.8314 33.1009 30.957 34.1797 30.957C35.2585 30.957 36.1328 31.8314 36.1328 32.9102V34.8633H38.0859C39.1647 34.8633 40.0391 35.7376 40.0391 36.8164ZM20.2148 48.0469C20.2148 49.1257 19.3405 50 18.2617 50H10.4492C6.14128 50 2.63672 46.4954 2.63672 42.1875V14.146C2.63672 12.1181 3.42293 10.2085 4.85039 8.76846L11.2999 2.26135C12.7243 0.824356 14.7018 0 16.7255 0H34.462C38.7695 0 42.2745 3.50456 42.2745 7.8125V18.1641C42.2745 19.2429 41.3998 20.1172 40.3214 20.1172C39.2426 20.1172 38.3682 19.2429 38.3682 18.1641V7.8125C38.3682 5.65872 36.6158 3.90625 34.462 3.90625H16.7255C15.7368 3.90625 14.7701 4.30908 14.0743 5.01137L7.62482 11.5181C7.30934 11.8362 7.05872 12.2017 6.87828 12.5977H12.3047C13.9202 12.5977 15.2344 11.2831 15.2344 9.66797C15.2344 8.58917 16.1087 7.71484 17.1875 7.71484C18.2663 7.71484 19.1406 8.58917 19.1406 9.66797C19.1406 13.4373 16.074 16.5039 12.3047 16.5039H6.54297V42.1875C6.54297 44.3413 8.29544 46.0938 10.4492 46.0938H18.2617C19.3405 46.0938 20.2148 46.9681 20.2148 48.0469Z" fill="#EBE7FF"/>
</g>
<defs>
<clipPath id="clip0_6363_23">
<rect width="50" height="50" fill="white"/>
</clipPath>
</defs>
</svg>
