<svg width="18" height="18" viewBox="0 0 18 18" fill="none" xmlns="http://www.w3.org/2000/svg">
<path d="M16.41 13.3914C16.3385 13.0097 15.9711 12.7582 15.5894 12.8298C15.2077 12.9013 14.9562 13.2687 15.0277 13.6504C15.0808 13.9335 14.9563 14.1353 14.8774 14.2304C14.7987 14.3253 14.6238 14.4844 14.3367 14.4844H3.66358C3.37653 14.4844 3.20159 14.3253 3.12288 14.2304C3.04399 14.1353 2.9195 13.9335 2.97259 13.6504C3.17203 12.5861 3.57221 11.8861 3.95921 11.2091C4.42921 10.3871 4.91521 9.53694 4.91521 8.22653V7.17184C4.91521 4.95464 6.71743 3.12634 8.93364 3.09417H9.06657C11.2753 3.12627 13.0715 4.95457 13.0715 7.17188V8.22656C13.0715 9.34182 13.4363 10.1093 13.7783 10.741C13.9055 10.9762 14.1474 11.1096 14.3972 11.1096C14.5103 11.1096 14.6249 11.0823 14.7313 11.0247C15.0728 10.8399 15.1998 10.4132 15.015 10.0717C14.6747 9.44304 14.4777 8.93957 14.4777 8.22656V7.17188C14.4777 5.72481 13.9173 4.35807 12.8994 3.32346C12.0272 2.43678 10.9072 1.88346 9.6965 1.73074V0.703125C9.6965 0.314789 9.38171 0 8.99337 0C8.60504 0 8.29025 0.314789 8.29025 0.703125V1.73282C5.60227 2.08157 3.509 4.40089 3.509 7.17188V8.22656C3.509 9.16337 3.16893 9.75818 2.73841 10.5112C2.31428 11.2532 1.83352 12.0941 1.59038 13.3914C1.47433 14.0107 1.63851 14.6438 2.04084 15.1286C2.44278 15.6129 3.03428 15.8906 3.66358 15.8906H6.89757C6.89757 17.0537 7.84383 18 9.00694 18C10.1701 18 11.1163 17.0537 11.1163 15.8906H14.3367C14.966 15.8906 15.5575 15.6129 15.9595 15.1286C16.3618 14.6439 16.526 14.0107 16.41 13.3914ZM9.00694 16.5938C8.61924 16.5938 8.30382 16.2783 8.30382 15.8906H9.71007C9.71007 16.2783 9.39468 16.5938 9.00694 16.5938Z" fill="white"/>
</svg>
