<svg width="50" height="50" viewBox="0 0 50 50" fill="none" xmlns="http://www.w3.org/2000/svg">
<path d="M20.9961 0H1.95312C0.874329 0 0 0.874329 0 1.95312C0 3.03192 0.874329 3.90625 1.95312 3.90625H2.92969V41.4551C2.92969 46.1666 6.76308 50 11.4746 50C16.1861 50 20.0195 46.1666 20.0195 41.4551V18.5547C20.0195 17.4759 19.1452 16.6016 18.0664 16.6016H6.83594V3.90625H16.1133V8.78906C16.1133 9.86786 16.9876 10.7422 18.0664 10.7422C19.1452 10.7422 20.0195 9.86786 20.0195 8.78906V3.90625H20.9961C22.0749 3.90625 22.9492 3.03192 22.9492 1.95312C22.9492 0.874329 22.0749 0 20.9961 0ZM16.1133 20.5078V41.4551C16.1133 44.0128 14.0324 46.0938 11.4746 46.0938C8.91685 46.0938 6.83594 44.0128 6.83594 41.4551V20.5078H16.1133ZM48.0469 0H29.0039C27.9251 0 27.0508 0.874329 27.0508 1.95312C27.0508 3.03192 27.9251 3.90625 29.0039 3.90625H29.9805V41.4551C29.9805 46.1666 33.8139 50 38.5254 50C43.2369 50 47.0703 46.1666 47.0703 41.4551V24.4141C47.0703 23.3353 46.196 22.4609 45.1172 22.4609H33.8867V3.90625H43.1641V14.6484C43.1641 15.7272 44.0384 16.6016 45.1172 16.6016C46.196 16.6016 47.0703 15.7272 47.0703 14.6484V3.90625H48.0469C49.1257 3.90625 50 3.03192 50 1.95312C50 0.874329 49.1257 0 48.0469 0ZM43.1641 26.3672V41.4551C43.1641 44.0128 41.0831 46.0938 38.5254 46.0938C35.9676 46.0938 33.8867 44.0128 33.8867 41.4551V26.3672H43.1641Z" fill="#EBE7FF"/>
</svg>
