<svg width="10" height="10" viewBox="0 0 10 10" fill="none" xmlns="http://www.w3.org/2000/svg">
<g clip-path="url(#clip0_42_6429)">
<path d="M5.00187 6.1996L1.63147 2.8292L1.63147 2.8292C1.45269 2.65044 1.16285 2.65044 0.984066 2.8292L0.984035 2.82923C0.805326 3.00802 0.805315 3.29782 0.984043 3.4766L0.984059 3.47662L4.67816 7.17073L4.67818 7.17074C4.85695 7.34947 5.14678 7.34947 5.32556 7.17074L5.32557 7.17073L9.01968 3.47662L9.01969 3.47664L9.02151 3.47476C9.19717 3.29287 9.19212 3.00303 9.01024 2.82737L9.01023 2.82737C8.83281 2.65603 8.55153 2.65602 8.37412 2.82738L8.3741 2.82736L8.37226 2.8292L5.00187 6.1996Z" fill="#50CAFF" stroke="#50CAFF" stroke-width="0.3"/>
</g>
<defs>
<clipPath id="clip0_42_6429">
<rect width="10" height="10" fill="white" transform="translate(0 10) rotate(-90)"/>
</clipPath>
</defs>
</svg>
